<svg width="52" height="28" viewBox="0 0 52 28" fill="none" xmlns="http://www.w3.org/2000/svg">
<path d="M21 12C20.5 12 21.0352 12 20.5 12C20 12 19.7256 12.0055 19.38 12H7.13L6 7.73998C5.9414 7.52181 5.81066 7.32992 5.62908 7.19555C5.44749 7.06118 5.22576 6.99224 5 6.99998H3C2.73478 6.99998 2.48043 7.10533 2.29289 7.29287C2.10536 7.48041 2 7.73476 2 7.99998C2 8.26519 2.10536 8.51955 2.29289 8.70708C2.48043 8.89462 2.73478 8.99998 3 8.99998H4.24L7 19.26C7.0586 19.4781 7.18934 19.67 7.37092 19.8044C7.55251 19.9388 7.77424 20.0077 8 20H17C17.1847 19.9994 17.3656 19.9477 17.5227 19.8507C17.6798 19.7536 17.8069 19.6149 17.89 19.45L21.17 12.89C21.3122 12.592 21.5157 12.3298 21.5 12C21.1374 12.0663 21.5 12 21 12ZM16.38 18H8.76L7.13 12H19.38L16.38 18Z" fill="white"/>
<path d="M7.5 25C8.32843 25 9 24.3284 9 23.5C9 22.6716 8.32843 22 7.5 22C6.67157 22 6 22.6716 6 23.5C6 24.3284 6.67157 25 7.5 25Z" fill="white"/>
<path d="M17.5 25C18.3284 25 19 24.3284 19 23.5C19 22.6716 18.3284 22 17.5 22C16.6716 22 16 22.6716 16 23.5C16 24.3284 16.6716 25 17.5 25Z" fill="white"/>
<path d="M9.868 14V12.74C11.156 11.4333 12.1033 10.43 12.71 9.73C13.3167 9.03 13.7367 8.46533 13.97 8.036C14.2033 7.60667 14.32 7.21 14.32 6.846C14.32 6.41667 14.194 6.08533 13.942 5.852C13.69 5.60933 13.3353 5.488 12.878 5.488C12.4767 5.488 12.038 5.58133 11.562 5.768C11.0953 5.94533 10.6193 6.202 10.134 6.538V5.166C11.03 4.438 12.0193 4.074 13.102 4.074C13.69 4.074 14.2033 4.18133 14.642 4.396C15.0807 4.60133 15.4213 4.9 15.664 5.292C15.916 5.684 16.042 6.15067 16.042 6.692C16.042 7.21467 15.902 7.74667 15.622 8.288C15.3513 8.82 14.908 9.43133 14.292 10.122C13.6853 10.8033 12.8453 11.6527 11.772 12.67H16.476V14H9.868Z" fill="#FF9900"/>
<path d="M31.938 24.734C31.2007 25.0233 30.3607 25.168 29.418 25.168C27.8687 25.168 26.6973 24.7573 25.904 23.936C25.12 23.1147 24.728 21.9013 24.728 20.296C24.728 18.644 25.134 17.3747 25.946 16.488C26.7673 15.592 27.9433 15.144 29.474 15.144C30.314 15.144 31.0887 15.27 31.798 15.522V16.922C30.874 16.726 30.1507 16.628 29.628 16.628C28.5733 16.628 27.7893 16.9033 27.276 17.454C26.7627 18.0047 26.506 18.854 26.506 20.002V20.338C26.506 21.4767 26.758 22.3213 27.262 22.872C27.7753 23.4133 28.5547 23.684 29.6 23.684C30.188 23.684 30.9673 23.5673 31.938 23.334V24.734ZM37.5465 25L37.4205 24.314C37.0939 24.594 36.7299 24.8133 36.3285 24.972C35.9365 25.1307 35.5445 25.21 35.1525 25.21C34.4992 25.21 33.9672 25.014 33.5565 24.622C33.1552 24.23 32.9545 23.7213 32.9545 23.096C32.9545 22.4053 33.2019 21.8547 33.6965 21.444C34.2005 21.0333 34.8725 20.828 35.7125 20.828C36.2072 20.828 36.7485 20.898 37.3365 21.038V20.212C37.3365 19.736 37.2339 19.4047 37.0285 19.218C36.8232 19.0313 36.4639 18.938 35.9505 18.938C35.2225 18.938 34.3872 19.092 33.4445 19.4V18.238C33.7899 18.0607 34.2099 17.9207 34.7045 17.818C35.2085 17.7153 35.7125 17.664 36.2165 17.664C37.1312 17.664 37.8032 17.8507 38.2325 18.224C38.6712 18.5973 38.8905 19.1807 38.8905 19.974V25H37.5465ZM35.6145 24.034C35.8852 24.034 36.1699 23.978 36.4685 23.866C36.7672 23.7447 37.0565 23.5767 37.3365 23.362V22.018C36.8419 21.9153 36.4032 21.864 36.0205 21.864C35.0499 21.864 34.5645 22.242 34.5645 22.998C34.5645 23.3247 34.6579 23.5813 34.8445 23.768C35.0312 23.9453 35.2879 24.034 35.6145 24.034ZM40.8674 25V17.874H42.2394L42.4634 18.938C42.8367 18.5273 43.1867 18.238 43.5134 18.07C43.84 17.902 44.1947 17.818 44.5774 17.818C44.7547 17.818 44.946 17.832 45.1514 17.86V19.372C44.89 19.3253 44.624 19.302 44.3534 19.302C43.6627 19.302 43.0514 19.4793 42.5194 19.834V25H40.8674ZM50.8486 24.832C50.3633 25.0093 49.8406 25.098 49.2806 25.098C48.5433 25.098 47.9973 24.9253 47.6426 24.58C47.2879 24.2347 47.1106 23.7073 47.1106 22.998V19.134H45.9066V18.098L47.1666 17.916L47.4186 15.914H48.7626V17.874H50.7926V19.134H48.7626V22.914C48.7626 23.2313 48.8373 23.46 48.9866 23.6C49.1453 23.7307 49.4066 23.796 49.7706 23.796C50.1626 23.796 50.5219 23.7587 50.8486 23.684V24.832Z" fill="white"/>
</svg>
